Coordinates
version=1
nRows=8
nColumns=63
inDegrees=yes

Units are S.I. units (second, meters, Newtons, ...)
If the header above contains a line with 'inDegrees', this indicates whether rotational values are in degrees (yes) or radians (no).

endheader
time	pelvis_tilt	pelvis_list	pelvis_rotation	pelvis_tx	pelvis_ty	pelvis_tz	hip_flexion_r	hip_adduction_r	hip_rotation_r	knee_angle_r	knee_angle_r_beta	ankle_angle_r	subtalar_angle_r	mtp_angle_r	hip_flexion_l	hip_adduction_l	hip_rotation_l	knee_angle_l	knee_angle_l_beta	ankle_angle_l	subtalar_angle_l	mtp_angle_l	L5_S1_Flex_Ext	L5_S1_Lat_Bending	L5_S1_axial_rotation	L4_L5_Flex_Ext	L4_L5_Lat_Bending	L4_L5_axial_rotation	L3_L4_Flex_Ext	L3_L4_Lat_Bending	L3_L4_axial_rotation	L2_L3_Flex_Ext	L2_L3_Lat_Bending	L2_L3_axial_rotation	L1_L2_Flex_Ext	L1_L2_Lat_Bending	L1_L2_axial_rotation	L1_T12_Flex_Ext	L1_T12_Lat_Bending	L1_T12_axial_rotation	Abs_r3	Abs_r2	Abs_r1	Abs_t1	Abs_t2	neck_flexion	neck_bending	neck_rotation	arm_flex_r	arm_add_r	arm_rot_r	elbow_flex_r	pro_sup_r	wrist_flex_r	wrist_dev_r	arm_flex_l	arm_add_l	arm_rot_l	elbow_flex_l	pro_sup_l	wrist_flex_l	wrist_dev_l
0.000000	-2.734856	-3.083589	94.412971	0.276322	0.910456	0.560758	6.044284	-9.249807	-8.337374	17.539081	0.306115	38.861966	1.453866	0.000000	0.528871	4.869460	25.447143	2.720300	0.047478	30.969912	-10.438251	0.000000	0.164648	-0.037634	-2.239380	0.305767	-0.050053	-2.379341	0.270499	-0.091503	-2.379341	0.188176	-0.091503	-1.959458	0.152892	-0.076743	-1.819496	0.094080	-0.058295	-1.679535	1.176061	-0.425722	-12.454760	0.000000	0.000000	27.204680	6.079017	3.481396	17.281675	-10.409165	67.431533	33.338828	47.430291	7.214863	6.030660	11.285605	-6.780632	48.027969	37.646526	68.784664	7.668021	-6.648213
0.016949	-2.422890	-2.990927	95.297500	0.276209	0.910488	0.559738	5.810919	-9.115165	-9.965248	17.558041	0.306446	40.196454	2.985099	0.000000	1.056636	4.488392	22.827769	4.034973	0.070424	32.487271	-6.277158	0.000000	0.143455	-0.002819	-2.293924	0.266410	-0.003750	-2.437294	0.235682	-0.006855	-2.437294	0.163955	-0.006855	-2.007183	0.133212	-0.005749	-1.863813	0.081970	-0.004367	-1.720443	1.024685	-0.031894	-12.758116	0.000000	0.000000	26.692453	5.681686	2.730330	16.561545	-10.571842	66.502406	33.578097	46.820695	7.210039	5.561295	11.968525	-6.850230	50.042823	37.661040	66.195464	6.643041	-7.062420
0.033898	-2.113940	-2.925482	96.101584	0.276092	0.910571	0.558895	5.627207	-8.964983	-11.459515	17.631661	0.307731	41.200496	4.318196	0.000000	1.542426	4.117199	20.557303	5.192181	0.090621	33.773683	-2.644709	0.000000	0.126935	0.032904	-2.360089	0.235731	0.043762	-2.507595	0.208542	0.080003	-2.507595	0.145074	0.080003	-2.065078	0.117872	0.067098	-1.917572	0.072531	0.050968	-1.770067	0.906685	0.372218	-13.126108	0.000000	0.000000	26.193843	5.424254	2.251651	16.004346	-10.701339	65.680017	33.792898	46.376495	7.160451	5.242728	12.484396	-6.889887	51.521839	37.715872	63.864496	5.732037	-7.374198
0.050847	-1.809564	-2.884620	96.828478	0.275971	0.910699	0.558214	5.489266	-8.802713	-12.829344	17.753004	0.309848	41.908492	5.470096	0.000000	1.987464	3.757245	18.612443	6.200069	0.108212	34.847150	0.494493	0.000000	0.114587	0.069238	-2.435868	0.212800	0.092087	-2.588109	0.188255	0.168346	-2.588109	0.130962	0.168346	-2.131384	0.106406	0.141191	-1.979142	0.065475	0.107250	-1.826901	0.818484	0.783237	-13.547565	0.000000	0.000000	25.712235	5.291035	2.014063	15.595248	-10.800880	64.956011	33.984812	46.081636	7.071645	5.060740	12.850388	-6.901263	52.515929	37.803653	61.790111	4.925480	-7.600370
0.067797	-1.511322	-2.865706	97.481440	0.275848	0.910869	0.557685	5.393213	-8.631808	-14.083905	17.915134	0.312678	42.354843	6.457735	0.000000	2.392977	3.409895	16.969882	7.066783	0.123339	35.725675	3.175844	0.000000	0.105910	0.105884	-2.519250	0.196686	0.140826	-2.676703	0.174000	0.257447	-2.676703	0.121045	0.257447	-2.204344	0.098348	0.215919	-2.046891	0.060517	0.164015	-1.889438	0.756506	1.197784	-14.011315	0.000000	0.000000	25.251014	5.266342	1.986268	15.319418	-10.873690	64.322034	34.155415	45.920061	6.949166	5.001110	13.083670	-6.886013	53.076005	37.917010	59.970664	4.213847	-7.757762
0.084746	-1.220773	-2.866107	98.063728	0.275724	0.911073	0.557293	5.335165	-8.455718	-15.232370	18.111114	0.316099	42.573950	7.298053	0.000000	2.760188	3.076514	15.606318	7.800469	0.136144	36.427259	5.434738	0.000000	0.100404	0.142544	-2.608228	0.186460	0.189583	-2.771243	0.164954	0.346581	-2.771243	0.114752	0.346581	-2.282200	0.093235	0.290675	-2.119186	0.057371	0.220800	-1.956171	0.717175	1.612482	-14.506184	0.000000	0.000000	24.813565	5.334489	2.136970	15.162028	-10.922995	63.769731	34.306286	45.875713	6.798561	5.049618	13.201410	-6.845796	53.252979	38.048574	58.404509	3.587609	-7.863194
0.101695	-0.939477	-2.883188	98.578599	0.275599	0.911309	0.557026	5.311240	-8.277896	-16.283909	18.334008	0.319989	42.600214	8.007985	0.000000	3.090324	2.758468	14.498445	8.409273	0.146769	36.969904	7.306573	0.000000	0.097567	0.178918	-2.700793	0.181192	0.237961	-2.869593	0.160294	0.435021	-2.869593	0.111510	0.435021	-2.363194	0.090601	0.364849	-2.194395	0.055750	0.277144	-2.025595	0.696914	2.023953	-15.021002	0.000000	0.000000	24.403272	5.479788	2.434872	15.108245	-10.952020	63.290747	34.439004	45.932537	6.625376	5.192043	13.220779	-6.782269	53.097764	38.190973	57.089998	3.037242	-7.933492
0.118644	-0.668993	-2.914316	99.029309	0.275474	0.911570	0.556869	5.317557	-8.101793	-17.247692	18.576878	0.324228	42.468035	8.604471	0.000000	3.384608	2.457120	13.622959	8.901340	0.155358	37.371613	8.826743	0.000000	0.096900	0.214708	-2.794936	0.179953	0.285561	-2.969619	0.159197	0.522041	-2.969619	0.110747	0.522041	-2.445569	0.089982	0.437832	-2.270885	0.055369	0.332582	-2.096202	0.692149	2.428818	-15.544595	0.000000	0.000000	24.023520	5.686554	2.848677	15.143238	-10.963989	62.876728	34.555146	46.074475	6.435157	5.414167	13.158944	-6.697090	52.661270	38.336836	56.025486	2.553219	-7.985478
